<svg xmlns="http://www.w3.org/2000/svg" version="1.1" viewBox="0 0 640 640" viewbox="0 0 64 64"><defs><filter id="a" width="2000%" height="2000%"><feGaussianBlur in="SourceAlpha" stdDeviation="3"/><feOffset dx="0" dy="4" result="offsetblur"/><feComponentTransfer><feFuncA slope=".1" type="linear"/></feComponentTransfer><feMerge><feMergeNode/><feMergeNode in="SourceGraphic"/></feMerge></filter></defs><g filter="url(#a)"><g stroke="orange" stroke-width="20" transform="translate( 200 260)"><path d="M0 90v30m-64-56-20 21M-90 0h-30m56-63-21-22M0-90v-30m64 57 21-22M90 0h30M64 64l20 21" fill="none" stroke-linecap="round" class="am-weather-sun"/><circle fill="orange" cx="0" cy="0" r="50"/></g><path d="M477 344a82 82 0 00-110-77 67 67 0 00-66-62 67 67 0 00-63 90l-10-1a67 67 0 00-2 134h172c44-5 79-40 79-84" fill="#91C0F8" stroke="#fff" stroke-linejoin="round" stroke-width="12" class="am-weather-cloud-2"/></g></svg>
