<svg xmlns="http://www.w3.org/2000/svg" version="1.1" viewBox="0 0 640 640" viewbox="0 0 64 64"><defs><filter id="a" width="2000%" height="2000%"><feGaussianBlur in="SourceAlpha" stdDeviation="3"/><feOffset dx="0" dy="4" result="offsetblur"/><feComponentTransfer><feFuncA slope=".1" type="linear"/></feComponentTransfer><feMerge><feMergeNode/><feMergeNode in="SourceGraphic"/></feMerge></filter></defs><g filter="url(#a)"><g stroke-linejoin="round" stroke-width="12"><path d="M386 232a50 50 0 00-66-46 40 40 0 00-40-37 40 40 0 00-37 54h-6a40 40 0 00-1 80h103a52 52 0 00 47-50" fill="#91C0F8" stroke="#fff" stroke-width="7" class="am-weather-cloud-1"/><path d="M477 344a82 82 0 00-110-77 67 67 0 00-66-62 67 67 0 00-63 90l-10-1a67 67 0 00-2 134h172c44-5 79-40 79-84" fill="#57A0EE" stroke="#FFF" class="am-weather-cloud-2"/></g></g></svg>
