<svg xmlns="http://www.w3.org/2000/svg" version="1.1" viewBox="0 0 6400 6400" viewbox="0 0 64 64"><defs><filter id="a" width="20000%" height="20000%"><feGaussianBlur in="SourceAlpha" stdDeviation="3"/><feOffset dx="0" dy="4" result="offsetblur"/><feComponentTransfer><feFuncA slope=".05" type="linear"/></feComponentTransfer><feMerge><feMergeNode/><feMergeNode in="SourceGraphic"/></feMerge></filter></defs><g filter="url(#a)"><g stroke="orange" stroke-width="200" transform="matrix(1.2 0 0 1.2 2000 2600)"><path d="M0 900v300m-636-564-212 212M-900 0h-300m564-637-212-212M0-899V-1200m636 563 212-212M900 0h300M636 636l212 212" fill="none" stroke-linecap="round" class="am-weather-sun"/><circle fill="orange" cx="0" cy="0" r="500"/></g><path d="M4555 3509a695 695 0 00-935-655 572 572 0 00-562-527 570 570 0 00-535 765c-26-8-60-8-85-8a570 570 0 00-17 1140h1467c374-43 672-340 672-715" fill="#57A0EE" stroke="#FFF" stroke-linejoin="round" stroke-width="127"/><g fill="none" stroke="#57A0EE" stroke-linecap="round"><g class="am-weather-snow-1"><path d="M2700 4350v500" stroke-width="120"/><path d="m2877 4423-354 353M2950 4600h-500m427 176-353-353" stroke-width="100"/></g><g class="am-weather-snow-2"><path d="M3600 4350v500" stroke-width="120"/><path d="m3777 4423-354 353M3850 4600h-500m427 176-353-353" stroke-width="100"/></g></g></g></svg>
