<svg xmlns="http://www.w3.org/2000/svg" width="64" height="64"><defs><filter id="a" width="200%" height="200%"><feGaussianBlur in="SourceAlpha" stdDeviation="3"/><feOffset dy="4" result="offsetblur"/><feComponentTransfer><feFuncA slope=".05" type="linear"/></feComponentTransfer><feMerge><feMergeNode/><feMergeNode in="SourceGraphic"/></feMerge></filter></defs><g filter="url(#a)"><g transform="matrix(1.2 0 0 1.2 20 26)"><g class="am-weather-sun"><path fill="none" stroke="orange" stroke-linecap="round" stroke-width="2" d="M0 9v3M-6.364 6.364l-2.121 2.121M-9 0h-3M-6.364-6.364l-2.121-2.121M0-9v-3M6.364-6.364l2.121-2.121M9 0h3M6.364 6.364l2.121 2.121"/></g><circle r="5" fill="orange" stroke="orange" stroke-width="2"/></g><path fill="#57A0EE" stroke="#FFF" stroke-linejoin="round" stroke-width="1.275" d="M45.545 35.09c0-3.91-3.145-6.97-6.97-6.97-.85 0-1.615.17-2.38.425-.255-2.89-2.635-5.27-5.61-5.27a5.695 5.695 0 0 0-5.695 5.695c0 .68.17 1.36.34 1.955-.255-.085-.595-.085-.85-.085a5.695 5.695 0 0 0-5.695 5.695c0 3.06 2.465 5.61 5.525 5.695h14.62c3.74-.425 6.715-3.4 6.715-7.14z"/><g fill="none" stroke="#91C0F8" stroke-dasharray="4,7" stroke-linecap="round" stroke-width="2"><path d="m27.918 45.943-1.39 7.878" class="am-weather-rain-1"/><path d="m34.174 45.015-1.39 7.879" class="am-weather-rain-2"/></g></g></svg>