<svg xmlns="http://www.w3.org/2000/svg" version="1.1" viewBox="0 0 64 64" viewbox="0 0 64 64"><defs><filter id="a" width="200%" height="200%"><feGaussianBlur in="SourceAlpha" stdDeviation="3"/><feOffset dx="0" dy="4" result="offsetblur"/><feComponentTransfer><feFuncA slope=".1" type="linear"/></feComponentTransfer><feMerge><feMergeNode/><feMergeNode in="SourceGraphic"/></feMerge></filter></defs><g filter="url(#a)"><path d="M38.6 25.2a5 5 0 0 0-6.6-4.6 4 4 0 0 0-4-3.6 4 4 0 0 0-3.7 5.4h-.6a4 4 0 0 0-.1 8h10.3a5.2 5.2 0 0 0 4.7-5z" fill="#91C0F8" stroke="#fff" stroke-linejoin="round" stroke-width=".7" class="am-weather-cloud-1"/><path d="M47.7 34.4a8.2 8.2 0 0 0-11-7.7 6.7 6.7 0 0 0-6.6-6.2 6.7 6.7 0 0 0-6.3 9l-1-.1a6.7 6.7 0 0 0-.2 13.4h17.2c4.4-.5 7.9-4 7.9-8.4z" fill="#57A0EE" stroke="#FFF" stroke-linejoin="round" stroke-width="1.2"/><path d="M28.2 34.5h7.4l-5 8.7h4.8L24.8 55.5l4-9.2h-4.5z" fill="orange" stroke="#fff" stroke-width="1.2" class="am-weather-stroke"/></g></svg>