<svg xmlns="http://www.w3.org/2000/svg" data-name="Layer 1" viewBox="0 0 9109 7050"><ellipse fill="#3f3d56" cx="6973" cy="5428" rx="485" ry="990"/><path d="M6928 7048c195-1166 2-2327 0-2339l-37 7c2 11 193 1166 0 2325Z" fill="#cacaca"/><path d="m6527 5249 18-34 438 234-18 34zm462 318 438-235 18 33-438 235" fill="#cacaca"/><ellipse fill="#e6e6e6" cx="8139" cy="3861" rx="949" ry="1936"/><path d="M8033 7027c380-2277 4-4545 0-4568l-38 7c4 22 378 2284 0 4554Z" fill="#cacaca"/><path d="m7276 3495 17-33 859 458-18 34zM8180 4150l857-460 18 34-857 460" fill="#cacaca"/><path d="M5935 7033H890a70 70 0 01-70-70V3774a70 70 0 01 70-70h5046a70 70 0 01 70 70v3189a70 70 0 01-70 70Z" fill="#e4e4e4"/><path d="M1353 4090a30 30 0 00-30 30v2496a30 30 0 00 30 30h4118a30 30 0 00 30-30V4121a30 30 0 00-30-30Z" fill="#fff"/><path d="M5511 4734v-159H4930v-494h-160v494H3734v-494h-158v494h-1600v-494H1820v494h-553v159H1820v615h-553v158H1820v659h-553v158H2670v332h158v-332h747v332h158v-332H5510v-158H3734v-660h1777V5350H4930v-615Zm-1935 0v193h-1600v-193Zm-1600 351h1600V5350h-1600Zm0 1080v-658h695v659Zm1600 0h-747v-658h747ZM4770 5350H3734v-615h1037Z" fill="#e6e6e6"/><circle fill="#0061a5" cx="3655" cy="5448" r="202"/><path d="M9105 7050H0v-22h9109l-4 22" fill="#cacaca"/><circle fill="#0061a5" cx="3679" cy="3001" r="1247"/><path d="m3691 5027-393-673-394-672 779-5 780-5-386 678-386 677" fill="#0061a5"/><circle fill="#fff" cx="3689" cy="2993" r="447"/><path d="M3650 6s-266-75-345 290-30 318-30 318l596-70s180-427-220-538Z" fill="#2f2e41"/><path d="M3262 1605s-402 19-332 177l13 31a2825 2825 0 00 172 332l247 410 90-50-253-658 228-19Zm1061 167 130 284s98 97 205 488 130 376 130 376l-106 35-433-788-214-270 65-143Z" fill="#ffb6b6"/><path d="m4165 1447 187 348s424 833 380 830a397 397 0 00-230 110c-20 27-320-630-425-777L3850 1782s-647 108-648 73c0-17 214 399 170 380-50-20-168 81-220 60-21-9-173-376-234-527a81 81 0 01 38-103c46-24 686-170 686-170l-10-57 46-93Z" fill="#2f2e41"/><circle fill="#ffb6b6" cx="5049" cy="1368" r="181" transform="rotate(-80.8 3753 1730)"/><path d="M4182 1475c10 30-54 47-145 30-78-14-163-31-230-45l-125-27s-18 116-79 102c-52-12-207-555-250-705a52 52 0 01 24-58l213-130s148-51 201-53 147-15 147-15 107 10 125 88 96 547 98 660c1 123-9 63 21 153Z" fill="#cacaca"/><path d="M3671 160s-75 199-260 282l-30-177Z" fill="#2f2e41"/><ellipse fill="#ffb6b6" cx="3780" cy="323" rx="26" ry="49"/><path d="m3527 2602-359 165-2-5a154 154 0 01 76-204l219-100Zm1102 330 220-100a154 154 0 01 204 78l2 5-361 161Z" fill="#2f2e41"/><path d="m4032 1045-42 463 75 3-33-466" opacity=".2"/><path d="M3740 1910a91 91 0 00-20-140l-162-816-186 71 217 780a92 92 0 00 150 104Z" fill="#ffb6b6"/><path d="m3599 1092-204 36a40 40 0 01-48-40l-6-206a114 114 0 01 224-38l65 195a40 40 0 01-31 53Z" fill="#cacaca"/><path d="M3895 1895a91 91 0 00 26-138L4030 932l-200 8-44 808a92 92 0 00 108 147Z" fill="#ffb6b6"/><path d="m4024 1076-204-32a40 40 0 01-33-52l60-197a114 114 0 01 225 35v205a40 40 0 01-48 40Z" fill="#cacaca"/></svg>
