<svg xmlns="http://www.w3.org/2000/svg" data-name="Layer 1" viewBox="0 0 7424 7126"><path d="M6248 1689h-39v-1070a620 620 0 00-620-619H3324a620 620 0 00-619 620v5868a620 620 0 00 620 620h2266a620 620 0 00 620-620V2451h38Z" fill="#3f3d56" data-name="Path 968"/><path d="M6082 578V6530a470 470 0 01-470 470H3301a470 470 0 01-470-470V578a470 470 0 01 470-470h280a223 223 0 00 207 308h1318a223 223 0 00 207-308h300a470 470 0 01 470 470Z" fill="#fff" data-name="Path 969"/><circle fill="#ba1a1a" cx="4456" cy="2001" r="966" data-name="Ellipse 18"/><path d="M5509 4006H3452a38 38 0 01-38-38v-510a38 38 0 01 38-38h2056a38 38 0 01 38 38v510a38 38 0 01-38 38Zm-2056-570a23 23 0 00-22 22v510a23 23 0 00 22 23h2056a23 23 0 00 23-23v-510a23 23 0 00-23-23Z" fill="#e6e6e6" data-name="Path 39"/><path d="M4089 3603a27 27 0 00 0 54h1256a27 27 0 00 2-53H4089Z" fill="#e6e6e6" data-name="Path 40"/><path d="M4089 3763a27 27 0 00 0 54h1256a27 27 0 00 2-53H4089Z" fill="#e6e6e6" data-name="Path 41"/><path d="M5509 4856H3452a38 38 0 01-38-38v-510a38 38 0 01 38-38h2056a38 38 0 01 38 38v510a38 38 0 01-38 38Zm-2056-570a23 23 0 00-22 22v510a23 23 0 00 22 23h2056a23 23 0 00 23-23v-510a23 23 0 00-23-23Z" fill="#e6e6e6" data-name="Path 42"/><path d="M4089 4456a27 27 0 00 0 54h1256a27 27 0 00 0-54H4090Z" fill="#e6e6e6" data-name="Path 43"/><path d="M4089 4616a27 27 0 00 0 53h1256a27 27 0 00 0-53H4090Z" fill="#e6e6e6" data-name="Path 44"/><path d="M5509 5708H3452a38 38 0 01-38-38v-510a38 38 0 01 38-37h2056a38 38 0 01 38 38v510a38 38 0 01-38 37Zm-2056-570a23 23 0 00-22 23v510a23 23 0 00 22 22h2056a23 23 0 00 23-23v-510a23 23 0 00-23-22Z" fill="#e6e6e6" data-name="Path 39-2"/><path d="M4089 5309a27 27 0 10 0 53h1256a27 27 0 00 2-53H4089Z" fill="#e6e6e6" data-name="Path 40-2"/><path d="M4089 5469a27 27 0 00 0 53h1256a27 27 0 00 2-53H4089Z" fill="#e6e6e6" data-name="Path 41-2"/><path d="M7405 7126H19c-10 0-20-5-20-10s10-11 20-11h7386c10 0 20 5 20 10s-10 10-20 10Z" fill="#e6e6e6" data-name="Path 970"/><g data-name="Group 58"><path d="M7092 6718a195 195 0 01-188-33c-66-55-87-146-103-230l-50-250 104 72c75 51 151 104 203 179s74 176 33 257" fill="#e6e6e6" data-name="Path 438"/><path d="M7076 7038c13-96 26-192 17-289a450 450 0 00-87-238 396 396 0 00-102-92c-10-6-20 10-10 16a376 376 0 01 150 180 603 603 0 01 32 260 2190 2190 0 01-18 158 10 10 0 00 6 11 10 10 0 00 12-6Z" fill="#f2f2f2" data-name="Path 439"/><path d="M6982 6884a143 143 0 01-125 65c-64-3-116-47-164-90l-140-123 93-4c67-4 135-7 199 14s122 70 134 136" fill="#e6e6e6" data-name="Path 442"/><path d="M7112 7093c-62-112-135-236-266-276a298 298 0 00-112-11c-12 0-10 20 3 18a277 277 0 01 179 47c50 35 90 83 123 133 20 31 39 64 57 96 6 10 23 3 17-8Z" fill="#f2f2f2" data-name="Path 443"/></g><g data-name="Group 59"><circle fill="#ba1a1a" cx="3710" cy="3710" r="160" data-name="Ellipse 5"/><path d="M3633 3680c-2 0-3 12-3 27s1 26 3 26H3790c2 0 4-11 4-26a60 60 0 00-3-27h-159Z" fill="#e6e6e6" data-name="Path 40-3"/></g><g data-name="Group 60"><circle fill="#ba1a1a" cx="3710" cy="4563" r="160" data-name="Ellipse 5-2"/><path d="M3633 4533c-2 0-3 12-3 27s1 26 3 26H3790c2 0 4-11 4-26a60 60 0 00-3-27h-159Z" fill="#e6e6e6" data-name="Path 40-4"/></g><g data-name="Group 61"><circle fill="#ba1a1a" cx="3710" cy="5415" r="160" data-name="Ellipse 5-3"/><path d="M3633 5386c-2 0-3 12-3 26s1 27 3 27H3790c2 0 4-12 4-26a60 60 0 00-3-27h-159Z" fill="#e6e6e6" data-name="Path 40-5"/></g><path d="m4190 1792 57-57L4720 2210l-56 57" fill="#fff"/><path d="m4665 1737 56 56-474 474-56-57" fill="#fff"/><path d="M903 4561a100 100 0 00 53-144l236-269-184-25-195 259a101 101 0 00 90 180Zm284 2381h-165l-78-634h243v634" fill="#9f616a"/><path d="M1229 7101h-530v-6a206 206 0 01 206-207H1230Z" fill="#2f2e41"/><path d="m2047 6805-157 48-262-582 231-72 188 606" fill="#9f616a"/><path d="m2134 6944-506 157-2-6a206 206 0 01 136-258l310-96Z" fill="#2f2e41"/><path d="m1061 4020-244 278 190 17Z" fill="#e6e6e6" data-name="Path 973"/><path d="M966 4379s-85 42-95 232 31 687 31 687-42 222 0 423-42 930 10 930 329 32 340 0 20-507 20-507 85-243 0-391c0 0 295 515 486 909 42 86 360-10 307-106s-180-528-180-528-95-317-264-455l85-676s180-455 74-518-814 0-814 0Z" fill="#2f2e41" data-name="Path 975"/><circle fill="#a0616a" cx="1283" cy="2381" r="275" data-name="Ellipse 182"/><path d="m1589 2677-341 201s-131 74-180 200a610 610 0 00 0 370c42 85-18 297-18 297l-53 486s-190 180-42 200 412-10 570 0 340 32 286-73-116-180-53-391c50-166 48-784 45-1045a210 210 0 00-103-178Z" fill="#e5e5e5" data-name="Path 976"/><path d="m3724 3947 32 645-307 622-53-20 317-580Z" data-name="Path 980" opacity=".1" style="isolation:isolate" transform="translate(-2288-937)"/><path d="M4073 4730v-75l-360 592Z" data-name="Path 982" opacity=".1" style="isolation:isolate" transform="translate(-2288-937)"/><path d="m1088 2127-46-18s95-105 228-96l-38-40s91-37 174 58c43 50 93 110 125 176h48l-20 45 71 44-73-8a247 247 0 01-7 116l2 36s-84-131-84-150v46s-46-40-46-68l-24 32-13-50-153 50 25-41-95 13 37-50s-107 60-111 110-58 113-58 113l-25-45s-37-205 83-273Z" fill="#2f2e41" data-name="Path 983"/><path d="M1266 4591a100 100 0 00 27-151l184-307-185 8-147 290a101 101 0 00 120 160Z" fill="#9f616a"/><path d="m1684 2815 80-16s237 174 163 523-401 877-401 877-74 95-95 116-64 0-43 32-31 53-31 53-233 0-212-85 380-687 380-687l-52-560s-42-274 211-253Z" fill="#e5e5e5" data-name="Path 981"/></svg>
