<svg xmlns="http://www.w3.org/2000/svg" fill="none" viewBox="0 0 1950 1650"><path d="M1195 0a740 740 0 00-710 523 485 485 0 00-478 440c0 23 8 45 23 60 15 15 22 23 45 23H1830c30 0 60-23 67-53 30-82 45-164 45-246A750 750 0 00 1195 0Z" fill="#0061A5"/><path d="M1195 1270c0-45-30-75-75-75H75c-45 0-75 30-75 75 0 44 30 74 75 74H1120c45 0 75-30 75-74Zm598-75h-374c-45 0-75 30-75 75 0 44 30 74 75 74h373c45 0 75-30 75-74 0-45-30-75-74-75Zm-374 299H373a70 70 0 00-74 74c0 45 30 75 74 75H1420c45 0 75-30 75-75 0-44-30-74-75-74Z" fill="#788799"/></svg>
