<svg width="195" height="165" viewBox="0 0 195 165" fill="none" xmlns="http://www.w3.org/2000/svg">
<path d="M119.5 0C86.6374 0 58.2562 20.9125 48.5468 52.2812C23.9 52.2812 2.98745 71.7 0.746826 96.3469C0.746826 98.5875 1.4937 100.828 2.98745 102.322C4.4812 103.816 5.22808 104.562 7.4687 104.562H182.984C185.972 104.562 188.959 102.322 189.706 99.3344C192.694 91.1187 194.187 82.9031 194.187 74.6875C194.187 33.6094 160.578 0 119.5 0Z" fill="#0061A5"/>
<path d="M119.5 126.969C119.5 122.487 116.513 119.5 112.031 119.5H7.46875C2.9875 119.5 0 122.487 0 126.969C0 131.45 2.9875 134.438 7.46875 134.438H112.031C116.513 134.438 119.5 131.45 119.5 126.969Z" fill="#788799"/>
<path d="M179.25 119.5H141.906C137.425 119.5 134.438 122.487 134.438 126.969C134.438 131.45 137.425 134.438 141.906 134.438H179.25C183.731 134.438 186.719 131.45 186.719 126.969C186.719 122.487 183.731 119.5 179.25 119.5Z" fill="#788799"/>
<path d="M141.906 149.375H37.3438C32.8625 149.375 29.875 152.362 29.875 156.844C29.875 161.325 32.8625 164.312 37.3438 164.312H141.906C146.388 164.312 149.375 161.325 149.375 156.844C149.375 152.362 146.388 149.375 141.906 149.375Z" fill="#788799"/>
</svg>
