<svg xmlns="http://www.w3.org/2000/svg" data-name="Layer 1" viewBox="0 0 7095 5586"><path d="M3 4h6439v4124H3" fill="#e6e6e6"/><path d="M187 521h6070v3362h-6070" fill="#fff"/><path d="M0 0h6439v274H0" fill="#0061a5"/><circle fill="#fff" cx="203" cy="140" r="51"/><circle fill="#fff" cx="396" cy="140" r="51"/><circle fill="#fff" cx="588" cy="140" r="51"/><path d="M738 870h1560v2665h-1560" fill="#e6e6e6"/><path d="M2567 870h1300v733h-1300" fill="#0061a5"/><path d="M2567 1807h1300v789h-1300zm0 994h1300v733h-1300zM4146 870h1560v1161h-1560zm0 1503h1560v1161h-1560" fill="#e6e6e6"/><path d="M5105 2114v-250a335 335 0 11 670 0v250a45 45 0 01-45 45h-580a45 45 0 01-45-45Z" fill="#2f2e41"/><path d="m5935 5368-118 33-182-441 174-48 126 456" fill="#ffb8b8"/><path d="m5723 5390 228-63 40 144-372 102a149 149 0 01 104-183Z" fill="#2f2e41"/><path d="M4703 5459h-122l-59-473h181v473" fill="#ffb8b8"/><path d="M4493 5424H4730v149h-386a149 149 0 01 150-150Z" fill="#2f2e41"/><path d="M4555 2816a100 100 0 00 154 10l326 146-30-184-304-110a101 101 0 00-146 138Z" fill="#ffb8b8"/><path d="M5233 3918a661 661 0 01-298-60 384 384 0 01-197-236c-46-147 12-291 69-430 35-87 68-170 77-250l3-28c13-129 24-240 89-281 33-22 77-23 136-4l550 179-20 1044-3 2c-3 0-197 64-406 64Z" fill="#2f2e41"/><path d="M5102 2303s270-80 480-50c0 0-120 660-80 880s-695 85-545-125l50-250s-100-100-10-220Z" fill="#0061a5"/><path d="m4970 3899-333-63 116-894c8-25 188-591 270-622a1395 1395 0 01 181-50l12-3-67 100-265 637Z" fill="#2f2e41"/><path d="m4796 5350-430-72 241-986 360-1347 3 24c0 2 34 178 532 100l4-1 1 4L6110 5197l-490 82-447-1550Z" fill="#2f2e41"/><path d="M5392 4066v-8c0-8 30-843 20-1180-10-336 100-628 100-631l1-3h3c141-40 264 80 265 80l2 3-40 331 171 1207Z" fill="#2f2e41"/><circle fill="#ffb8b8" cx="5371" cy="1908" r="246"/><path d="M5026 1884A265 265 0 01 5290 1620h50a265 265 0 01 265 265v5H5500l-36-100-7 100h-55l-18-50-4 50h-354Z" fill="#2f2e41"/><path d="M5347 2188a44 44 0 01-4-48c53-100 127-287 29-401l-7-9H5650v430l-260 45a46 46 0 01-8 1 45 45 0 01-36-18Z" fill="#2f2e41"/><path d="M4196 415a1350 1350 0 10 76 1994L5930 3807a124 124 0 00 160-190L4433 2219a1350 1350 0 00-237-1804Zm-107 1670a1012 1012 0 11-120-1426 1012 1012 0 01 120 1426Z" fill="#3f3d56"/><path d="M5116 3913a1012 1012 0 01-172-1360q-29 29-56 60A1012 1012 0 10 6434 3920q27-32 51-66a1012 1012 0 01-1370 60Z" opacity=".3" style="isolation:isolate" transform="translate(-2452-1707)"/><path d="M5450 3245a100 100 0 00 124-90l344-97-140-122-305 110a101 101 0 00-23 200Z" fill="#ffb8b8"/><path d="m5593 3195-21-200 288-158-188-227 30-255 77-33 2 3c36 47 351 453 351 503 0 52-60 204-142 245a3550 3550 0 01-391 120Z" fill="#2f2e41"/><path d="M7085 5586h-3810a10 10 0 11 0-20h3810a10 10 0 01 0 20Z" fill="#ccc"/></svg>
